#N canvas 978 285 524 488 10;
#X obj 52 297 dac~;
#X obj 51 18 noise~;
#X obj 51 87 *~;
#X obj 118 39 line~;
#X msg 118 16 1 \, 0 300;
#X obj 119 86 *~;
#X obj 186 38 line~;
#X msg 186 15 1 \, 0 300;
#X obj 182 85 *~;
#X obj 249 37 line~;
#X msg 249 14 1 \, 0 300;
#X obj 52 154 pdnam+~ data/tw40_blues_deluxe_deerinkstudios.json;
#X obj 120 184 pdnam+~ data/BossWN-nano.nam;
#X obj 181 216 pdnam+~ data/Tomato_Preamp_Maximum_Gain.aidax;
#X connect 1 0 2 0;
#X connect 1 0 5 0;
#X connect 1 0 8 0;
#X connect 2 0 11 0;
#X connect 3 0 2 1;
#X connect 4 0 3 0;
#X connect 5 0 12 0;
#X connect 6 0 5 1;
#X connect 7 0 6 0;
#X connect 8 0 13 0;
#X connect 9 0 8 1;
#X connect 10 0 9 0;
#X connect 11 0 0 0;
#X connect 11 0 0 1;
#X connect 12 0 0 0;
#X connect 12 0 0 1;
#X connect 13 0 0 0;
#X connect 13 0 0 1;
