#N canvas 334 1538 395 250 12;
#X obj 55 47 inlet;
#X obj 55 102 outlet;
#X obj 192 47 inlet;
#N canvas 1090 385 450 300 @hv_obj 0;
#X obj 54 49 inlet;
#X obj 52 143 outlet;
#X obj 146 49 inlet;
#X obj 143 143 outlet;
#X obj 235 143 outlet;
#X restore 55 73 pd @hv_obj __list \$1;
#X obj 123 102 outlet;
#X obj 192 102 outlet;
#X text 52 146 @hv_arg \$1 type string append false;
#X connect 0 0 3 0;
#X connect 2 0 3 1;
#X connect 3 0 1 0;
#X connect 3 1 4 0;
#X connect 3 2 5 0;
