#N canvas 670 156 319 348 12;
#X obj 55 17 loadbang;
#X obj 55 303 print;
#X msg 125 155 3.1;
#X msg 71 155 2.3;
#X msg 180 155 5.5;
#X obj 55 271 snapshot~;
#X obj 55 92 t_delays;
#X obj 55 50 bng 25 250 50 0 empty empty empty 17 7 0 10 #191919 #ffffff #ffffff;
#X obj 180 182 sig~;
#X obj 125 182 sig~;
#X obj 71 182 sig~;
#X obj 126 303 print;
#X obj 126 271 snapshot~;
#X obj 71 208 expr~ $v1+$v2+$v3 \; $v1-$v2-$v3 \; $v1+$v3;
#X obj 201 303 print;
#X obj 201 271 snapshot~;
#X connect 0 0 7 0;
#X connect 2 0 9 0;
#X connect 3 0 10 0;
#X connect 4 0 8 0;
#X connect 5 0 1 0;
#X connect 6 0 5 0;
#X connect 6 1 12 0;
#X connect 6 2 15 0;
#X connect 6 3 3 0;
#X connect 6 4 2 0;
#X connect 6 5 4 0;
#X connect 7 0 6 0;
#X connect 8 0 13 2;
#X connect 9 0 13 1;
#X connect 10 0 13 0;
#X connect 12 0 11 0;
#X connect 13 0 5 0;
#X connect 13 1 12 0;
#X connect 13 2 15 0;
#X connect 15 0 14 0;
