#N canvas 670 156 450 300 12;
#X obj 55 17 loadbang;
#X obj 55 250 print;
#X msg 88 129 3.1;
#X msg 55 129 2.3;
#X msg 124 129 5.5;
#X obj 88 250 print;
#X obj 55 52 bng 25 250 50 0 empty empty empty 0 -10 0 10 #191919 #ffffff #ffffff;
#X obj 124 250 print;
#X obj 55 92 t b b b;
#X obj 55 174 expr $f1+$f2 \; $f2-$i3 \; $i3+$f2;
#X connect 0 0 6 0;
#X connect 2 0 9 1;
#X connect 3 0 9 0;
#X connect 4 0 9 2;
#X connect 6 0 8 0;
#X connect 8 0 3 0;
#X connect 8 1 2 0;
#X connect 8 2 4 0;
#X connect 9 0 1 0;
#X connect 9 1 5 0;
#X connect 9 2 7 0;
