#N canvas 827 239 167 290 12;
#X obj 25 27 loadbang;
#X obj 25 245 print L;
#X msg 27 177 2;
#X obj 25 59 bng 25 250 50 0 empty empty empty 0 -10 0 10 #191919 #ffffff #ffffff;
#X obj 25 99 t b b b;
#X obj 77 245 print R;
#X msg 54 129 symbol float;
#X msg 39 152 3;
#X obj 25 211 select float;
#X connect 0 0 3 0;
#X connect 2 0 8 0;
#X connect 3 0 4 0;
#X connect 4 0 2 0;
#X connect 4 1 7 0;
#X connect 4 2 6 0;
#X connect 6 0 8 0;
#X connect 7 0 8 0;
#X connect 8 0 1 0;
#X connect 8 1 5 0;
