#N canvas 827 239 135 308 12;
#X obj 31 34 loadbang;
#X obj 31 60 bng 25 250 50 0 empty empty empty 0 -10 0 10 #191919 #ffffff #ffffff;
#X obj 33 253 print;
#X msg 47 171 4 b 6;
#X msg 33 195 list 1 a 3;
#X msg 62 146 symbol dog;
#X obj 33 227 list trim;
#X obj 31 92 t b b b b;
#X msg 78 118 list;
#X connect 0 0 1 0;
#X connect 1 0 7 0;
#X connect 3 0 6 0;
#X connect 4 0 6 0;
#X connect 5 0 6 0;
#X connect 6 0 2 0;
#X connect 7 0 4 0;
#X connect 7 1 3 0;
#X connect 7 2 5 0;
#X connect 7 3 8 0;
#X connect 8 0 6 0;
