#N canvas 827 239 171 334 12;
#X obj 25 31 loadbang;
#X obj 25 57 bng 25 250 50 0 empty empty empty 0 -10 0 10 #191919 #ffffff #ffffff;
#X obj 25 189 t b b;
#X obj 25 274 list;
#X obj 25 300 print;
#X msg 25 242 1 a 3;
#X msg 39 218 list 4 b 6;
#X obj 25 89 t b b;
#X obj 39 133 t b b;
#X msg 39 161 c 1 a 3;
#X connect 0 0 1 0;
#X connect 1 0 7 0;
#X connect 2 0 5 0;
#X connect 2 1 6 0;
#X connect 3 0 4 0;
#X connect 5 0 3 0;
#X connect 6 0 3 1;
#X connect 7 0 2 0;
#X connect 7 1 8 0;
#X connect 8 0 9 0;
#X connect 8 1 6 0;
#X connect 9 0 3 0;
