#N canvas 827 239 194 348 12;
#X obj 25 31 loadbang;
#X obj 25 57 bng 25 250 50 0 empty empty empty 0 -10 0 10 #191919 #ffffff #ffffff;
#X obj 25 119 t b b;
#X obj 25 230 print;
#X msg 39 148 4 b 6;
#X obj 25 204 list prepend;
#X msg 25 172 list 1 a 3;
#X msg 82 148 c 4 b 6;
#X obj 25 89 t b b;
#X obj 68 119 t b b;
#X connect 0 0 1 0;
#X connect 1 0 8 0;
#X connect 2 0 6 0;
#X connect 2 1 4 0;
#X connect 4 0 5 1;
#X connect 5 0 3 0;
#X connect 6 0 5 0;
#X connect 7 0 5 1;
#X connect 8 0 2 0;
#X connect 8 1 9 0;
#X connect 9 0 6 0;
#X connect 9 1 7 0;
