#N canvas 827 239 413 1183 12;
#X msg 301 828 4 5 6 and 7;
#X obj 41 1066 print store-left;
#X obj 134 1008 print store-right;
#X obj 136 957 bng 19 250 50 0 empty empty empty 17 7 0 10 #dfdfdf #000000 #000000;
#X obj 41 924 list store, f 16;
#X obj 26 18 loadbang;
#X obj 26 44 bng 25 250 50 0 empty empty empty 0 -10 0 10 #191919 #ffffff #ffffff;
#X obj 26 76 t b b b b b b;
#X msg 64 496 set 1 5 6 7;
#X msg 81 536 insert 1 foo bar;
#X msg 98 569 delete 1;
#X msg 154 738 send foo;
#X msg 172 827 send \$1;
#X obj 172 802 symbol \$0-x;
#X obj 172 777 bng 19 250 50 0 empty empty empty 17 7 0 10 #dfdfdf #000000 #000000;
#X msg 140 696 prepend 1 2 3;
#X msg 131 667 append 1 2 3;
#X obj 264 1015 r \$0-x;
#X obj 264 924 r foo;
#X obj 264 950 print foo;
#X msg 282 774 go dog go cat;
#X msg 293 802 list w x y z;
#X obj 264 1041 print \$0-x;
#X msg 121 634 delete 4 -1;
#X msg 111 601 delete 2 3;
#X obj 26 429 bng 25 250 50 0 empty empty empty 0 -10 0 10 #191919 #ffffff #ffffff;
#X obj 202 383 t b b;
#X obj 26 383 t b b b b b b b b b;
#X obj 158 233 t b b;
#X obj 197 134 t b b;
#X obj 111 337 t b b;
#X msg 41 459 set 2 4;
#X obj 75 179 del 100;
#X obj 42 284 del 200;
#X obj 92 134 del 30;
#X obj 59 233 del 130;
#X obj 26 337 del 230;
#X connect 0 0 4 1;
#X connect 3 0 2 0;
#X connect 4 0 1 0;
#X connect 4 1 3 0;
#X connect 5 0 6 0;
#X connect 6 0 7 0;
#X connect 7 0 36 0;
#X connect 7 1 33 0;
#X connect 7 2 35 0;
#X connect 7 3 32 0;
#X connect 7 4 34 0;
#X connect 7 5 29 0;
#X connect 8 0 4 0;
#X connect 9 0 4 0;
#X connect 10 0 4 0;
#X connect 11 0 4 0;
#X connect 12 0 4 0;
#X connect 13 0 12 0;
#X connect 14 0 13 0;
#X connect 15 0 4 0;
#X connect 16 0 4 0;
#X connect 17 0 22 0;
#X connect 18 0 19 0;
#X connect 20 0 4 1;
#X connect 21 0 4 1;
#X connect 23 0 4 0;
#X connect 24 0 4 0;
#X connect 25 0 4 0;
#X connect 26 0 11 0;
#X connect 26 1 14 0;
#X connect 27 0 25 0;
#X connect 27 1 31 0;
#X connect 27 2 8 0;
#X connect 27 3 9 0;
#X connect 27 4 10 0;
#X connect 27 5 24 0;
#X connect 27 6 23 0;
#X connect 27 7 16 0;
#X connect 27 8 15 0;
#X connect 28 0 26 0;
#X connect 28 1 21 0;
#X connect 29 0 26 0;
#X connect 29 1 0 0;
#X connect 30 0 26 0;
#X connect 30 1 20 0;
#X connect 31 0 4 0;
#X connect 32 0 28 0;
#X connect 33 0 30 0;
#X connect 34 0 27 0;
#X connect 35 0 27 0;
#X connect 36 0 27 0;
