#N canvas 827 239 374 772 12;
#X floatatom 99 305 5 0 0 0 - - - 0;
#X msg 83 275 1 2 3;
#X msg 40 194 list cis boom bah;
#X msg 193 530 list x y z;
#X msg 182 502 go dog go;
#X msg 201 556 4 5 6 and 7;
#X obj 73 771 print store-left;
#X obj 182 711 print store-right;
#X obj 182 682 bng 19 250 50 0 empty empty empty 17 7 0 10 #dfdfdf #000000 #000000;
#X obj 117 339 bng 19 250 50 0 empty empty empty 17 7 0 10 #dfdfdf #000000 #000000;
#X msg 138 403 get 1 3;
#X msg 150 436 get 2 -1;
#X msg 129 371 get 1;
#X obj 73 654 list store, f 16;
#X obj 40 21 loadbang;
#X obj 40 47 bng 25 250 50 0 empty empty empty 0 -10 0 10 #191919 #ffffff #ffffff;
#X obj 40 79 t b b b b b b;
#X obj 40 150 t b b b b b b b b;
#X msg 57 236 symbol bla;
#X connect 0 0 13 0;
#X connect 1 0 13 0;
#X connect 2 0 13 0;
#X connect 3 0 13 1;
#X connect 4 0 13 1;
#X connect 5 0 13 1;
#X connect 8 0 7 0;
#X connect 9 0 13 0;
#X connect 10 0 13 0;
#X connect 11 0 13 0;
#X connect 12 0 13 0;
#X connect 13 0 6 0;
#X connect 13 1 8 0;
#X connect 14 0 15 0;
#X connect 15 0 16 0;
#X connect 16 0 17 0;
#X connect 16 1 4 0;
#X connect 16 2 17 0;
#X connect 16 3 3 0;
#X connect 16 4 17 0;
#X connect 16 5 5 0;
#X connect 17 0 2 0;
#X connect 17 1 18 0;
#X connect 17 2 1 0;
#X connect 17 3 0 0;
#X connect 17 4 9 0;
#X connect 17 5 12 0;
#X connect 17 6 10 0;
#X connect 17 7 11 0;
#X connect 18 0 13 0;
