#N canvas 827 239 152 281 12;
#X obj 22 17 loadbang;
#X obj 22 43 bng 25 250 50 0 empty empty empty 0 -10 0 10 #191919 #ffffff #ffffff;
#X obj 22 243 print;
#X msg 36 161 4 b 6;
#X obj 22 217 list length;
#X msg 22 185 list 1 a 3;
#X msg 53 133 symbol dog;
#X obj 22 75 t b b b b;
#X msg 71 106 0;
#X connect 0 0 1 0;
#X connect 1 0 7 0;
#X connect 3 0 4 0;
#X connect 4 0 2 0;
#X connect 5 0 4 0;
#X connect 6 0 4 0;
#X connect 7 0 5 0;
#X connect 7 1 3 0;
#X connect 7 2 6 0;
#X connect 7 3 8 0;
#X connect 8 0 4 0;
