#N canvas 827 239 317 363 12;
#X obj 25 27 loadbang;
#X obj 25 261 route float;
#X obj 25 295 print L;
#X msg 27 227 2;
#X obj 25 59 bng 25 250 50 0 empty empty empty 0 -10 0 10 #191919 #ffffff #ffffff;
#X obj 25 149 t b b b;
#X msg 39 202 a b;
#X obj 73 295 print R;
#X obj 154 295 print L;
#X msg 156 227 2;
#X obj 154 149 t b b b;
#X msg 168 202 a b;
#X msg 183 179 3 c;
#X obj 25 98 t b b;
#X obj 154 261 route 3 float;
#X obj 202 295 print M;
#X obj 253 295 print R;
#X msg 54 179 float 3;
#X connect 0 0 4 0;
#X connect 1 0 2 0;
#X connect 1 1 7 0;
#X connect 3 0 1 0;
#X connect 4 0 13 0;
#X connect 5 0 3 0;
#X connect 5 1 6 0;
#X connect 5 2 17 0;
#X connect 6 0 1 0;
#X connect 9 0 14 0;
#X connect 10 0 9 0;
#X connect 10 1 11 0;
#X connect 10 2 12 0;
#X connect 11 0 14 0;
#X connect 12 0 14 0;
#X connect 13 0 5 0;
#X connect 13 1 10 0;
#X connect 14 0 8 0;
#X connect 14 1 15 0;
#X connect 14 2 16 0;
#X connect 17 0 1 0;
