#N canvas 827 239 728 407 12;
#X obj 86 58 loadbang;
#X obj 86 84 bng 25 250 50 0 empty empty empty 0 -10 0 10 #191919 #ffffff #ffffff;
#X obj 86 158 t b b b;
#X msg 115 197 go dog go;
#X msg 100 234 delete 0 -1;
#X msg 86 267 symbol bla;
#X obj 86 301 list store;
#X text 173 20 edge cases;
#X obj 280 197 t b b b;
#X msg 309 234 go dog go;
#X msg 294 274 delete 0 -1;
#X obj 280 301 list store;
#X text 90 348 output a symbol;
#X text 287 348 output a bang;
#X obj 280 327 print store-bang;
#X obj 86 327 print store-symbol;
#X obj 86 123 t b b b;
#X obj 478 301 list store;
#X msg 515 234 a b c;
#X obj 478 327 print store-get;
#X obj 478 197 t b b;
#X msg 478 267 get 0 1;
#X text 484 348 output symbol a;
#X connect 0 0 1 0;
#X connect 1 0 16 0;
#X connect 2 0 5 0;
#X connect 2 1 4 0;
#X connect 2 2 3 0;
#X connect 3 0 6 1;
#X connect 4 0 6 0;
#X connect 5 0 6 0;
#X connect 6 0 15 0;
#X connect 8 0 11 0;
#X connect 8 1 10 0;
#X connect 8 2 9 0;
#X connect 9 0 11 1;
#X connect 10 0 11 0;
#X connect 11 0 14 0;
#X connect 16 0 2 0;
#X connect 16 1 8 0;
#X connect 16 2 20 0;
#X connect 17 0 19 0;
#X connect 18 0 17 1;
#X connect 20 0 21 0;
#X connect 20 1 18 0;
#X connect 21 0 17 0;
