#N canvas 827 239 252 675 12;
#X obj 31 34 loadbang;
#X obj 31 60 bng 25 250 50 0 empty empty empty 0 -10 0 10 #191919 #ffffff #ffffff;
#X msg 151 293 1 2 3;
#X msg 48 146 list cis boom bah;
#X obj 82 636 print split1;
#X msg 31 122 walk the dog;
#X msg 134 268 1 2;
#X msg 84 196 1;
#X msg 168 319 1 2 3 4;
#X msg 117 245 1 2 so are you;
#X obj 67 172 bng 19 250 50 0 empty empty empty 17 7 0 10 #dfdfdf #000000 #000000;
#X msg 99 220 symbol a;
#X obj 112 447 route bang;
#X obj 163 514 print split3;
#X obj 112 474 bng 19 250 50 0 empty empty empty 17 7 0 10 #dfdfdf #000000 #000000;
#X obj 71 514 route bang;
#X obj 71 539 bng 19 250 50 0 empty empty empty 17 7 0 10 #dfdfdf #000000 #000000;
#X obj 31 578 route bang;
#X obj 31 604 bng 19 250 50 0 empty empty empty 17 7 0 10 #dfdfdf #000000 #000000;
#X obj 122 578 print split2;
#X obj 31 406 list split, f 14;
#X msg 190 348 2;
#X obj 31 92 t b b b b b b b b b b;
#X connect 0 0 1 0;
#X connect 1 0 22 0;
#X connect 2 0 20 0;
#X connect 3 0 20 0;
#X connect 5 0 20 0;
#X connect 6 0 20 0;
#X connect 7 0 20 0;
#X connect 8 0 20 0;
#X connect 9 0 20 0;
#X connect 10 0 20 0;
#X connect 11 0 20 0;
#X connect 12 0 14 0;
#X connect 12 1 13 0;
#X connect 14 0 13 0;
#X connect 15 0 16 0;
#X connect 15 1 19 0;
#X connect 16 0 19 0;
#X connect 17 0 18 0;
#X connect 17 1 4 0;
#X connect 18 0 4 0;
#X connect 20 0 17 0;
#X connect 20 1 15 0;
#X connect 20 2 12 0;
#X connect 21 0 20 1;
#X connect 22 0 5 0;
#X connect 22 1 3 0;
#X connect 22 2 10 0;
#X connect 22 3 7 0;
#X connect 22 4 11 0;
#X connect 22 5 9 0;
#X connect 22 6 6 0;
#X connect 22 7 2 0;
#X connect 22 8 8 0;
#X connect 22 9 21 0;
