#N canvas 756 224 412 319 12;
#X obj 68 48 inlet~;
#X obj 224 48 inlet~;
#X obj 68 109 *~;
#X obj 102 110 *~;
#N canvas 0 459 450 300 @hv_obj 0;
#X obj 31 15 inlet~;
#X obj 30 87 outlet~;
#X restore 68 198 pd @hv_obj __sqrt~f;
#X obj 68 155 +~;
#X obj 68 255 outlet~;
#N canvas 1091 104 298 181 @hv_obj 0;
#X obj 56 36 inlet~;
#X obj 56 128 outlet~;
#X obj 150 35 inlet~;
#X restore 223 197 pd @hv_obj __atan2~f;
#X obj 223 254 outlet~;
#X connect 0 0 2 0;
#X connect 0 0 2 1;
#X connect 0 0 7 1;
#X connect 1 0 3 0;
#X connect 1 0 3 1;
#X connect 1 0 7 0;
#X connect 2 0 5 0;
#X connect 3 0 5 1;
#X connect 4 0 6 0;
#X connect 5 0 4 0;
#X connect 7 0 8 0;
