#N canvas 882 360 406 266 12;
#X obj 68 48 inlet~;
#X obj 224 48 inlet~;
#X obj 68 218 outlet~;
#X obj 223 217 outlet~;
#X obj 67 170 *~;
#X obj 222 172 *~;
#N canvas 0 459 275 162 @hv_obj 0;
#X obj 31 15 inlet~;
#X obj 30 87 outlet~;
#X restore 85 123 pd @hv_obj __cos~f;
#N canvas 1091 104 255 205 @hv_obj 0;
#X obj 56 36 inlet~;
#X obj 56 128 outlet~;
#X restore 240 122 pd @hv_obj __sin~f;
#X connect 0 0 4 0;
#X connect 0 0 5 0;
#X connect 1 0 6 0;
#X connect 1 0 7 0;
#X connect 4 0 2 0;
#X connect 5 0 3 0;
#X connect 6 0 4 1;
#X connect 7 0 5 1;
