#N canvas 827 239 345 394 12;
#X obj 40 35 loadbang;
#X obj 40 83 bng 25 250 50 0 empty empty empty 17 7 0 10 #191919 #ffffff #ffffff;
#X obj 40 354 print;
#X obj 40 322 snapshot~;
#X obj 184 354 print;
#X obj 184 322 snapshot~;
#X obj 138 225 sig~ 3;
#X obj 184 225 sig~ 11;
#X obj 266 225 sig~ -7.3;
#X obj 56 225 sig~ 2.3;
#X obj 40 117 t b b;
#X obj 40 168 del 2;
#X msg 132 89 1;
#X msg 128 185 mode \$1;
#X obj 132 117 vradio 15 1 0 4 empty empty empty 0 -8 0 10 #dcdcdc #000000 #000000 0;
#X text 122 116 0;
#X text 122 130 1;
#X text 122 146 2;
#X text 122 161 3;
#X obj 56 265 cyclone/bitand~;
#X obj 184 265 cyclone/bitand~;
#X connect 0 0 1 0;
#X connect 0 0 12 0;
#X connect 1 0 10 0;
#X connect 3 0 2 0;
#X connect 5 0 4 0;
#X connect 6 0 19 1;
#X connect 7 0 20 0;
#X connect 8 0 20 1;
#X connect 9 0 19 0;
#X connect 10 0 11 0;
#X connect 10 1 5 0;
#X connect 11 0 3 0;
#X connect 12 0 14 0;
#X connect 13 0 19 0;
#X connect 13 0 20 0;
#X connect 14 0 13 0;
#X connect 19 0 3 0;
#X connect 20 0 5 0;
