#N canvas 670 156 415 328 12;
#X obj 55 17 loadbang;
#X obj 55 287 print;
#X obj 55 251 snapshot~;
#X obj 55 50 bng 25 250 50 0 empty empty empty 17 7 0 10 #191919 #ffffff #ffffff;
#X obj 71 220 cyclone/lessthaneq~;
#X obj 223 220 cyclone/greaterthaneq~;
#X obj 223 290 print;
#X obj 223 254 snapshot~;
#X obj 55 92 t_delays;
#X msg 251 133 2.3;
#X obj 71 179 sig~;
#X obj 180 179 sig~;
#X msg 305 133 3.1;
#X msg 351 133 0.5;
#X obj 351 179 sig~;
#X msg 180 133 3.1;
#X msg 122 133 2.3;
#X msg 71 133 5.5;
#X connect 0 0 3 0;
#X connect 2 0 1 0;
#X connect 3 0 8 0;
#X connect 4 0 2 0;
#X connect 5 0 7 0;
#X connect 7 0 6 0;
#X connect 8 0 2 0;
#X connect 8 1 7 0;
#X connect 8 2 15 0;
#X connect 8 2 17 0;
#X connect 8 2 16 0;
#X connect 8 3 2 0;
#X connect 8 4 7 0;
#X connect 8 5 13 0;
#X connect 8 5 9 0;
#X connect 8 5 12 0;
#X connect 9 0 10 0;
#X connect 10 0 4 0;
#X connect 11 0 4 1;
#X connect 11 0 5 0;
#X connect 12 0 11 0;
#X connect 13 0 14 0;
#X connect 14 0 5 1;
#X connect 15 0 14 0;
#X connect 16 0 11 0;
#X connect 17 0 10 0;
