#N canvas 827 239 647 438 12;
#X obj 60 47 loadbang;
#X obj 60 74 bng 25 250 50 0 empty empty empty 17 7 0 10 #191919 #ffffff #ffffff;
#X obj 112 393 print;
#X msg 112 172 2.3;
#X obj 228 393 print;
#X obj 350 393 print;
#X obj 470 393 print;
#X obj 60 108 t_delays_long;
#X obj 112 298 sig~;
#X obj 228 298 sig~;
#X obj 350 298 sig~, f 4;
#X obj 470 298 sig~, f 4;
#X obj 350 360 snapshot~;
#X obj 470 360 snapshot~;
#X obj 112 360 snapshot~;
#X obj 228 360 snapshot~;
#X obj 60 172 t b b;
#X obj 60 198 del 2;
#X msg 199 172 -3.16;
#X text 251 46 -3.1 gave inconsistent rounding errors in CI on sinh() \; so it was changed to -3.16 for this test;
#X obj 112 328 cyclone/sinx~;
#X obj 228 328 cyclone/asin~;
#X obj 350 328 cyclone/sinh~;
#X obj 470 328 cyclone/asinh~;
#X msg 287 172 0.333;
#X connect 0 0 1 0;
#X connect 1 0 7 0;
#X connect 3 0 9 0;
#X connect 3 0 10 0;
#X connect 3 0 11 0;
#X connect 3 0 8 0;
#X connect 7 0 16 0;
#X connect 7 1 12 0;
#X connect 7 2 13 0;
#X connect 7 3 3 0;
#X connect 7 4 14 0;
#X connect 7 5 15 0;
#X connect 7 6 12 0;
#X connect 7 7 13 0;
#X connect 7 8 18 0;
#X connect 7 9 14 0;
#X connect 7 10 15 0;
#X connect 7 11 12 0;
#X connect 7 12 13 0;
#X connect 7 13 24 0;
#X connect 8 0 20 0;
#X connect 9 0 21 0;
#X connect 10 0 22 0;
#X connect 11 0 23 0;
#X connect 12 0 5 0;
#X connect 13 0 6 0;
#X connect 14 0 2 0;
#X connect 15 0 4 0;
#X connect 16 0 17 0;
#X connect 16 1 15 0;
#X connect 17 0 14 0;
#X connect 18 0 9 0;
#X connect 18 0 10 0;
#X connect 18 0 11 0;
#X connect 18 0 8 0;
#X connect 20 0 14 0;
#X connect 21 0 15 0;
#X connect 22 0 12 0;
#X connect 23 0 13 0;
#X connect 24 0 11 0;
#X connect 24 0 10 0;
#X connect 24 0 9 0;
#X connect 24 0 8 0;
