#N canvas 827 239 504 457 12;
#X obj 60 47 loadbang;
#X obj 60 74 bng 25 250 50 0 empty empty empty 17 7 0 10 #191919 #ffffff #ffffff;
#X msg 112 142 2.3;
#X obj 186 377 print;
#X obj 308 377 print;
#X obj 428 377 print;
#X msg 199 142 -3.1;
#X obj 60 108 t_delays_long;
#X obj 186 282 sig~;
#X obj 308 282 sig~, f 4;
#X obj 428 282 sig~, f 4;
#X obj 308 344 snapshot~;
#X obj 428 344 snapshot~;
#X obj 186 344 snapshot~;
#X obj 186 312 cyclone/atan~;
#X obj 308 312 cyclone/tanh~;
#X obj 428 312 cyclone/atanh~;
#X msg 287 142 0.33;
#X obj 60 377 print;
#X obj 60 282 sig~;
#X obj 60 344 snapshot~;
#X obj 60 312 cyclone/tanx~;
#X obj 60 197 del 2;
#X connect 0 0 1 0;
#X connect 1 0 7 0;
#X connect 2 0 8 0;
#X connect 2 0 9 0;
#X connect 2 0 10 0;
#X connect 2 0 19 0;
#X connect 6 0 9 0;
#X connect 6 0 10 0;
#X connect 6 0 8 0;
#X connect 6 0 19 0;
#X connect 7 0 13 0;
#X connect 7 0 22 0;
#X connect 7 1 11 0;
#X connect 7 2 12 0;
#X connect 7 3 2 0;
#X connect 7 4 20 0;
#X connect 7 5 13 0;
#X connect 7 6 11 0;
#X connect 7 7 12 0;
#X connect 7 8 6 0;
#X connect 7 9 20 0;
#X connect 7 10 13 0;
#X connect 7 11 11 0;
#X connect 7 12 12 0;
#X connect 7 13 17 0;
#X connect 8 0 14 0;
#X connect 9 0 15 0;
#X connect 10 0 16 0;
#X connect 11 0 4 0;
#X connect 12 0 5 0;
#X connect 13 0 3 0;
#X connect 14 0 13 0;
#X connect 15 0 11 0;
#X connect 16 0 12 0;
#X connect 17 0 10 0;
#X connect 17 0 9 0;
#X connect 17 0 8 0;
#X connect 17 0 19 0;
#X connect 19 0 21 0;
#X connect 20 0 18 0;
#X connect 21 0 20 0;
#X connect 22 0 20 0;
