#N canvas 827 239 734 565 12;
#X obj 60 47 loadbang;
#X obj 60 74 bng 25 250 50 0 empty empty empty 17 7 0 10 #191919 #ffffff #ffffff;
#X obj 112 393 print;
#X msg 112 172 2.3;
#X obj 228 393 print;
#X obj 350 393 print;
#X obj 470 393 print;
#X msg 199 172 -3.1;
#X obj 60 108 t_delays_long;
#X obj 112 298 sig~;
#X obj 228 298 sig~;
#X obj 350 298 sig~;
#X obj 470 298 sig~;
#X obj 350 360 snapshot~;
#X obj 470 360 snapshot~;
#X obj 112 360 snapshot~;
#X obj 228 360 snapshot~;
#X obj 60 172 t b b;
#X obj 60 198 del 2;
#X obj 112 328 cyclone/cosx~;
#X obj 228 328 cyclone/acos~;
#X obj 350 328 cyclone/cosh~;
#X obj 470 328 cyclone/acosh~;
#X msg 287 172 0.333;
#X connect 0 0 1 0;
#X connect 1 0 8 0;
#X connect 3 0 10 0;
#X connect 3 0 11 0;
#X connect 3 0 12 0;
#X connect 3 0 9 0;
#X connect 7 0 10 0;
#X connect 7 0 11 0;
#X connect 7 0 12 0;
#X connect 7 0 9 0;
#X connect 8 0 17 0;
#X connect 8 1 13 0;
#X connect 8 2 14 0;
#X connect 8 3 3 0;
#X connect 8 4 15 0;
#X connect 8 5 16 0;
#X connect 8 6 13 0;
#X connect 8 7 14 0;
#X connect 8 8 7 0;
#X connect 8 9 15 0;
#X connect 8 10 16 0;
#X connect 8 11 13 0;
#X connect 8 12 14 0;
#X connect 8 13 23 0;
#X connect 9 0 19 0;
#X connect 10 0 20 0;
#X connect 11 0 21 0;
#X connect 12 0 22 0;
#X connect 13 0 5 0;
#X connect 14 0 6 0;
#X connect 15 0 2 0;
#X connect 16 0 4 0;
#X connect 17 0 18 0;
#X connect 17 1 16 0;
#X connect 18 0 15 0;
#X connect 19 0 15 0;
#X connect 20 0 16 0;
#X connect 21 0 13 0;
#X connect 22 0 14 0;
#X connect 23 0 12 0;
#X connect 23 0 11 0;
#X connect 23 0 10 0;
#X connect 23 0 9 0;
