#N canvas 670 156 418 345 12;
#X obj 46 24 loadbang;
#X obj 46 294 print;
#X obj 46 258 snapshot~;
#X obj 46 57 bng 25 250 50 0 empty empty empty 17 7 0 10 #191919 #ffffff #ffffff;
#X obj 214 297 print;
#X obj 214 261 snapshot~;
#X obj 46 99 t_delays;
#X obj 62 186 sig~;
#X obj 171 186 sig~;
#X msg 342 140 0.5;
#X obj 342 186 sig~;
#X msg 113 140 2.3;
#X obj 62 227 cyclone/lessthan~;
#X obj 214 227 cyclone/greaterthan~;
#X msg 296 140 0.5;
#X msg 242 140 0.3;
#X msg 171 140 2.1;
#X msg 62 140 2.5;
#X connect 0 0 3 0;
#X connect 2 0 1 0;
#X connect 3 0 6 0;
#X connect 5 0 4 0;
#X connect 6 0 2 0;
#X connect 6 1 5 0;
#X connect 6 2 16 0;
#X connect 6 2 17 0;
#X connect 6 2 11 0;
#X connect 6 3 2 0;
#X connect 6 4 5 0;
#X connect 6 5 9 0;
#X connect 6 5 15 0;
#X connect 6 5 14 0;
#X connect 7 0 12 0;
#X connect 8 0 12 1;
#X connect 8 0 13 0;
#X connect 9 0 10 0;
#X connect 10 0 13 1;
#X connect 11 0 8 0;
#X connect 12 0 2 0;
#X connect 13 0 5 0;
#X connect 14 0 8 0;
#X connect 15 0 7 0;
#X connect 16 0 10 0;
#X connect 17 0 7 0;
