#N canvas 670 156 411 456 12;
#X obj 46 24 loadbang;
#X obj 46 416 print;
#X obj 46 379 snapshot~;
#X obj 46 57 bng 25 250 50 0 empty empty empty 17 7 0 10 #191919 #ffffff #ffffff;
#X obj 214 416 print;
#X obj 214 382 snapshot~;
#X obj 46 99 t_delays;
#X obj 62 209 sig~;
#X obj 171 209 sig~;
#X obj 308 209 sig~;
#X msg 113 161 2.3;
#X msg 235 161 0.3;
#X msg 171 161 2.1;
#X msg 62 161 2.5;
#X obj 62 273 cyclone/poltocar~;
#X obj 214 273 cyclone/cartopol~;
#X msg 289 161 220;
#X msg 342 161 440;
#X obj 308 382 snapshot~;
#X obj 197 321 t b b;
#X obj 129 379 snapshot~;
#X obj 46 321 t b b;
#X obj 129 416 print;
#X obj 308 416 print;
#X obj 197 349 del 1;
#X obj 46 349 del 1;
#X connect 0 0 3 0;
#X connect 2 0 1 0;
#X connect 3 0 6 0;
#X connect 5 0 4 0;
#X connect 6 0 21 0;
#X connect 6 1 19 0;
#X connect 6 2 10 0;
#X connect 6 2 12 0;
#X connect 6 2 13 0;
#X connect 6 3 21 0;
#X connect 6 4 19 0;
#X connect 6 5 11 0;
#X connect 6 5 17 0;
#X connect 6 5 16 0;
#X connect 7 0 14 0;
#X connect 8 0 14 1;
#X connect 8 0 15 0;
#X connect 9 0 15 1;
#X connect 10 0 8 0;
#X connect 11 0 7 0;
#X connect 12 0 9 0;
#X connect 13 0 7 0;
#X connect 14 0 2 0;
#X connect 14 1 20 0;
#X connect 15 0 5 0;
#X connect 15 1 18 0;
#X connect 16 0 8 0;
#X connect 17 0 9 0;
#X connect 18 0 23 0;
#X connect 19 0 24 0;
#X connect 19 1 18 0;
#X connect 20 0 22 0;
#X connect 21 0 25 0;
#X connect 21 1 20 0;
#X connect 24 0 5 0;
#X connect 25 0 2 0;
