#N canvas 670 156 253 409 12;
#X obj 55 17 loadbang;
#X obj 55 349 print;
#X msg 88 149 2.3;
#X obj 55 313 snapshot~;
#X obj 55 92 t_delays;
#X obj 55 50 bng 25 250 50 0 empty empty empty 17 7 0 10 #191919 #ffffff #ffffff;
#X obj 197 176 sig~;
#X obj 142 176 sig~;
#X obj 88 176 sig~;
#X msg 197 149 1;
#X msg 142 149 2;
#X obj 88 251 cyclone/notequals~;
#X obj 88 210 cyclone/equals~;
#X connect 0 0 5 0;
#X connect 2 0 8 0;
#X connect 3 0 1 0;
#X connect 4 0 3 0;
#X connect 4 2 2 0;
#X connect 4 3 10 0;
#X connect 4 4 9 0;
#X connect 5 0 4 0;
#X connect 6 0 11 1;
#X connect 7 0 12 1;
#X connect 8 0 12 0;
#X connect 9 0 6 0;
#X connect 10 0 7 0;
#X connect 11 0 3 0;
#X connect 12 0 11 0;
