#N canvas 670 156 359 342 12;
#X obj 46 24 loadbang;
#X obj 46 319 print;
#X obj 46 283 snapshot~;
#X obj 46 57 bng 25 250 50 0 empty empty empty 17 7 0 10 #191919 #ffffff #ffffff;
#X obj 232 316 print;
#X obj 232 280 snapshot~;
#X obj 232 221 cyclone/bitsafe~;
#X obj 78 221 cyclone/bitsafe~;
#X obj 46 89 t b b;
#X obj 46 116 del 2;
#X obj 78 152 sig~ -1;
#X obj 78 183 expr~ log($v1);
#X obj 232 184 expr~ atanh($v1);
#X obj 232 152 sig~ 1;
#X connect 0 0 3 0;
#X connect 2 0 1 0;
#X connect 3 0 8 0;
#X connect 5 0 4 0;
#X connect 6 0 5 0;
#X connect 7 0 2 0;
#X connect 8 0 9 0;
#X connect 8 1 5 0;
#X connect 9 0 2 0;
#X connect 10 0 11 0;
#X connect 11 0 7 0;
#X connect 12 0 6 0;
#X connect 13 0 12 0;
